solid OpenSCAD_Model
  facet normal 1 -0 0
    outer loop
      vertex 3.4 8.1 5.4
      vertex 3.4 9.7 3
      vertex 3.4 9.7 5.4
    endloop
  endfacet
  facet normal 1 0 0
    outer loop
      vertex 3.4 9.7 3
      vertex 3.4 8.1 5.4
      vertex 3.4 8.1 3
    endloop
  endfacet
  facet normal -0 0 1
    outer loop
      vertex -1.90735e-07 9.7 5.4
      vertex 3.4 8.1 5.4
      vertex 3.4 9.7 5.4
    endloop
  endfacet
  facet normal 0 0 1
    outer loop
      vertex 3.4 8.1 5.4
      vertex -1.90735e-07 9.7 5.4
      vertex -1.90735e-07 8.1 5.4
    endloop
  endfacet
  facet normal 0 -1 0
    outer loop
      vertex -1.90735e-07 8.1 3
      vertex 3.4 8.1 5.4
      vertex -1.90735e-07 8.1 5.4
    endloop
  endfacet
  facet normal 0 -1 -0
    outer loop
      vertex 3.4 8.1 5.4
      vertex -1.90735e-07 8.1 3
      vertex 3.4 8.1 3
    endloop
  endfacet
  facet normal 0 1 -0
    outer loop
      vertex 3.4 9.7 3
      vertex -1.90735e-07 9.7 5.4
      vertex 3.4 9.7 5.4
    endloop
  endfacet
  facet normal 0 1 0
    outer loop
      vertex -1.90735e-07 9.7 5.4
      vertex 3.4 9.7 3
      vertex -1.90735e-07 9.7 3
    endloop
  endfacet
  facet normal -0 0 1
    outer loop
      vertex 59.7 9.7 5.4
      vertex 63.1 8.1 5.4
      vertex 63.1 9.7 5.4
    endloop
  endfacet
  facet normal 0 0 1
    outer loop
      vertex 63.1 8.1 5.4
      vertex 59.7 9.7 5.4
      vertex 59.7 8.1 5.4
    endloop
  endfacet
  facet normal -1 0 0
    outer loop
      vertex 59.7 8.1 3
      vertex 59.7 9.7 5.4
      vertex 59.7 9.7 3
    endloop
  endfacet
  facet normal -1 -0 0
    outer loop
      vertex 59.7 9.7 5.4
      vertex 59.7 8.1 3
      vertex 59.7 8.1 5.4
    endloop
  endfacet
  facet normal 0 -1 0
    outer loop
      vertex 59.7 8.1 3
      vertex 63.1 8.1 5.4
      vertex 59.7 8.1 5.4
    endloop
  endfacet
  facet normal 0 -1 -0
    outer loop
      vertex 63.1 8.1 5.4
      vertex 59.7 8.1 3
      vertex 63.1 8.1 3
    endloop
  endfacet
  facet normal 0 1 -0
    outer loop
      vertex 63.1 9.7 3
      vertex 59.7 9.7 5.4
      vertex 63.1 9.7 5.4
    endloop
  endfacet
  facet normal 0 1 0
    outer loop
      vertex 59.7 9.7 5.4
      vertex 63.1 9.7 3
      vertex 59.7 9.7 3
    endloop
  endfacet
  facet normal 1 -0 0
    outer loop
      vertex 5.7 7.9 8.78
      vertex 5.7 9.5 3
      vertex 5.7 9.5 8.78
    endloop
  endfacet
  facet normal 1 0 0
    outer loop
      vertex 5.7 9.5 3
      vertex 5.7 7.9 8.78
      vertex 5.7 7.9 3
    endloop
  endfacet
  facet normal -0 0 1
    outer loop
      vertex 4.1 9.5 8.78
      vertex 5.7 7.9 8.78
      vertex 5.7 9.5 8.78
    endloop
  endfacet
  facet normal 0 0 1
    outer loop
      vertex 5.7 7.9 8.78
      vertex 4.1 9.5 8.78
      vertex 4.1 7.9 8.78
    endloop
  endfacet
  facet normal -1 0 0
    outer loop
      vertex 4.1 7.9 3
      vertex 4.1 9.5 8.78
      vertex 4.1 9.5 3
    endloop
  endfacet
  facet normal -1 -0 0
    outer loop
      vertex 4.1 9.5 8.78
      vertex 4.1 7.9 3
      vertex 4.1 7.9 8.78
    endloop
  endfacet
  facet normal 0 -1 0
    outer loop
      vertex 4.1 7.9 3
      vertex 5.7 7.9 8.78
      vertex 4.1 7.9 8.78
    endloop
  endfacet
  facet normal 0 -1 -0
    outer loop
      vertex 5.7 7.9 8.78
      vertex 4.1 7.9 3
      vertex 5.7 7.9 3
    endloop
  endfacet
  facet normal 0 1 -0
    outer loop
      vertex 5.7 9.5 3
      vertex 4.1 9.5 8.78
      vertex 5.7 9.5 8.78
    endloop
  endfacet
  facet normal 0 1 0
    outer loop
      vertex 4.1 9.5 8.78
      vertex 5.7 9.5 3
      vertex 4.1 9.5 3
    endloop
  endfacet
  facet normal 1 -0 0
    outer loop
      vertex 59 7.9 8.78
      vertex 59 9.5 3
      vertex 59 9.5 8.78
    endloop
  endfacet
  facet normal 1 0 0
    outer loop
      vertex 59 9.5 3
      vertex 59 7.9 8.78
      vertex 59 7.9 3
    endloop
  endfacet
  facet normal -0 0 1
    outer loop
      vertex 57.4 9.5 8.78
      vertex 59 7.9 8.78
      vertex 59 9.5 8.78
    endloop
  endfacet
  facet normal 0 0 1
    outer loop
      vertex 59 7.9 8.78
      vertex 57.4 9.5 8.78
      vertex 57.4 7.9 8.78
    endloop
  endfacet
  facet normal -1 0 0
    outer loop
      vertex 57.4 7.9 3
      vertex 57.4 9.5 8.78
      vertex 57.4 9.5 3
    endloop
  endfacet
  facet normal -1 -0 0
    outer loop
      vertex 57.4 9.5 8.78
      vertex 57.4 7.9 3
      vertex 57.4 7.9 8.78
    endloop
  endfacet
  facet normal 0 -1 0
    outer loop
      vertex 57.4 7.9 3
      vertex 59 7.9 8.78
      vertex 57.4 7.9 8.78
    endloop
  endfacet
  facet normal 0 -1 -0
    outer loop
      vertex 59 7.9 8.78
      vertex 57.4 7.9 3
      vertex 59 7.9 3
    endloop
  endfacet
  facet normal 0 1 -0
    outer loop
      vertex 59 9.5 3
      vertex 57.4 9.5 8.78
      vertex 59 9.5 8.78
    endloop
  endfacet
  facet normal 0 1 0
    outer loop
      vertex 57.4 9.5 8.78
      vertex 59 9.5 3
      vertex 57.4 9.5 3
    endloop
  endfacet
  facet normal 0 1 -0
    outer loop
      vertex 63.1 13 0
      vertex -1.90735e-07 13 3
      vertex 63.1 13 3
    endloop
  endfacet
  facet normal 0 1 0
    outer loop
      vertex -1.90735e-07 13 3
      vertex 63.1 13 0
      vertex -1.90735e-07 13 0
    endloop
  endfacet
  facet normal 0 0 -1
    outer loop
      vertex -1.90735e-07 0 0
      vertex 63.1 13 0
      vertex 63.1 0 0
    endloop
  endfacet
  facet normal -0 0 -1
    outer loop
      vertex 63.1 13 0
      vertex -1.90735e-07 0 0
      vertex -1.90735e-07 13 0
    endloop
  endfacet
  facet normal 0 0 1
    outer loop
      vertex 63.1 13 3
      vertex 59.7 9.7 3
      vertex 63.1 9.7 3
    endloop
  endfacet
  facet normal 0 0 1
    outer loop
      vertex 59.7 9.7 3
      vertex 59 9.5 3
      vertex 59.7 8.1 3
    endloop
  endfacet
  facet normal -0 0 1
    outer loop
      vertex 56.2 12.7 3
      vertex 59.7 9.7 3
      vertex 63.1 13 3
    endloop
  endfacet
  facet normal 0 0 1
    outer loop
      vertex 59.7 9.7 3
      vertex 56.2 12.7 3
      vertex 59 9.5 3
    endloop
  endfacet
  facet normal 0 0 1
    outer loop
      vertex 57.4 9.5 3
      vertex 57.1 9.5 3
      vertex 57.4 7.9 3
    endloop
  endfacet
  facet normal 0 0 1
    outer loop
      vertex 59 9.5 3
      vertex 56.2 12.7 3
      vertex 57.4 9.5 3
    endloop
  endfacet
  facet normal -0 0 1
    outer loop
      vertex 56.2 10.3 3
      vertex 57.4 9.5 3
      vertex 56.2 12.7 3
    endloop
  endfacet
  facet normal 0 0 1
    outer loop
      vertex 63.1 13 3
      vertex 6.9 12.7 3
      vertex 56.2 12.7 3
    endloop
  endfacet
  facet normal 0 0 1
    outer loop
      vertex 5.7 9.5 3
      vertex 6.9 10.3 3
      vertex 6.9 12.7 3
    endloop
  endfacet
  facet normal 0 0 1
    outer loop
      vertex 6 9.5 3
      vertex 5.7 9.5 3
      vertex 6 7.9 3
    endloop
  endfacet
  facet normal 0 0 1
    outer loop
      vertex 6.9 10.3 3
      vertex 5.7 9.5 3
      vertex 6 9.5 3
    endloop
  endfacet
  facet normal 0 0 1
    outer loop
      vertex 6.9 12.7 3
      vertex 4.1 9.5 3
      vertex 5.7 9.5 3
    endloop
  endfacet
  facet normal 0 0 1
    outer loop
      vertex 3.4 8.1 3
      vertex 4.1 9.5 3
      vertex 3.4 9.7 3
    endloop
  endfacet
  facet normal 0 0 1
    outer loop
      vertex 6.9 12.7 3
      vertex 3.4 9.7 3
      vertex 4.1 9.5 3
    endloop
  endfacet
  facet normal -0 0 1
    outer loop
      vertex -1.90735e-07 13 3
      vertex 6.9 12.7 3
      vertex 63.1 13 3
    endloop
  endfacet
  facet normal 0 0 1
    outer loop
      vertex -1.90735e-07 13 3
      vertex 3.4 9.7 3
      vertex 6.9 12.7 3
    endloop
  endfacet
  facet normal 0 0 1
    outer loop
      vertex 3.4 9.7 3
      vertex -1.90735e-07 13 3
      vertex -1.90735e-07 9.7 3
    endloop
  endfacet
  facet normal -0 0 1
    outer loop
      vertex 59.7 8.1 3
      vertex 63.1 0 3
      vertex 63.1 8.1 3
    endloop
  endfacet
  facet normal 0 0 1
    outer loop
      vertex 59 7.9 3
      vertex 59.7 8.1 3
      vertex 59 9.5 3
    endloop
  endfacet
  facet normal 0 0 1
    outer loop
      vertex 59.7 8.1 3
      vertex 59 7.9 3
      vertex 63.1 0 3
    endloop
  endfacet
  facet normal -0 0 1
    outer loop
      vertex 57.4 7.9 3
      vertex 63.1 0 3
      vertex 59 7.9 3
    endloop
  endfacet
  facet normal 0 0 1
    outer loop
      vertex 57.1 7.9 3
      vertex 57.4 7.9 3
      vertex 57.1 9.5 3
    endloop
  endfacet
  facet normal -0 0 1
    outer loop
      vertex 57.1 7.9 3
      vertex 63.1 0 3
      vertex 57.4 7.9 3
    endloop
  endfacet
  facet normal -0 0 1
    outer loop
      vertex 6 7.9 3
      vertex 63.1 0 3
      vertex 57.1 7.9 3
    endloop
  endfacet
  facet normal 0 0 1
    outer loop
      vertex 5.7 7.9 3
      vertex 6 7.9 3
      vertex 5.7 9.5 3
    endloop
  endfacet
  facet normal 0 0 1
    outer loop
      vertex -1.90735e-07 0 3
      vertex 6 7.9 3
      vertex 5.7 7.9 3
    endloop
  endfacet
  facet normal 0 0 1
    outer loop
      vertex -1.90735e-07 0 3
      vertex 5.7 7.9 3
      vertex 4.1 7.9 3
    endloop
  endfacet
  facet normal 0 0 1
    outer loop
      vertex 4.1 9.5 3
      vertex 3.4 8.1 3
      vertex 4.1 7.9 3
    endloop
  endfacet
  facet normal 0 0 1
    outer loop
      vertex -1.90735e-07 0 3
      vertex 3.4 8.1 3
      vertex -1.90735e-07 8.1 3
    endloop
  endfacet
  facet normal 0 0 1
    outer loop
      vertex 3.4 8.1 3
      vertex -1.90735e-07 0 3
      vertex 4.1 7.9 3
    endloop
  endfacet
  facet normal 0 0 1
    outer loop
      vertex 6 7.9 3
      vertex -1.90735e-07 0 3
      vertex 63.1 0 3
    endloop
  endfacet
  facet normal 0 0 1
    outer loop
      vertex 57.4 9.5 3
      vertex 56.2 10.3 3
      vertex 57.1 9.5 3
    endloop
  endfacet
  facet normal -0 0 1
    outer loop
      vertex 6.9 10.3 3
      vertex 57.1 9.5 3
      vertex 56.2 10.3 3
    endloop
  endfacet
  facet normal 0 0 1
    outer loop
      vertex 57.1 9.5 3
      vertex 6.9 10.3 3
      vertex 6 9.5 3
    endloop
  endfacet
  facet normal 1 -0 0
    outer loop
      vertex 56.2 10.3 7.88
      vertex 56.2 12.7 3
      vertex 56.2 12.7 7.88
    endloop
  endfacet
  facet normal 1 0 0
    outer loop
      vertex 56.2 12.7 3
      vertex 56.2 10.3 7.88
      vertex 56.2 10.3 3
    endloop
  endfacet
  facet normal -0 0 1
    outer loop
      vertex 6.9 12.7 7.88
      vertex 56.2 10.3 7.88
      vertex 56.2 12.7 7.88
    endloop
  endfacet
  facet normal 0 0 1
    outer loop
      vertex 56.2 10.3 7.88
      vertex 6.9 12.7 7.88
      vertex 6.9 10.3 7.88
    endloop
  endfacet
  facet normal -1 0 0
    outer loop
      vertex 6.9 10.3 3
      vertex 6.9 12.7 7.88
      vertex 6.9 12.7 3
    endloop
  endfacet
  facet normal -1 -0 0
    outer loop
      vertex 6.9 12.7 7.88
      vertex 6.9 10.3 3
      vertex 6.9 10.3 7.88
    endloop
  endfacet
  facet normal 0 -1 0
    outer loop
      vertex 6.9 10.3 3
      vertex 56.2 10.3 7.88
      vertex 6.9 10.3 7.88
    endloop
  endfacet
  facet normal 0 -1 -0
    outer loop
      vertex 56.2 10.3 7.88
      vertex 6.9 10.3 3
      vertex 56.2 10.3 3
    endloop
  endfacet
  facet normal 0 1 -0
    outer loop
      vertex 56.2 12.7 3
      vertex 6.9 12.7 7.88
      vertex 56.2 12.7 7.88
    endloop
  endfacet
  facet normal 0 1 0
    outer loop
      vertex 6.9 12.7 7.88
      vertex 56.2 12.7 3
      vertex 6.9 12.7 3
    endloop
  endfacet
  facet normal 1 -0 0
    outer loop
      vertex 57.1 7.9 6.48
      vertex 57.1 9.5 3
      vertex 57.1 9.5 6.48
    endloop
  endfacet
  facet normal 1 0 0
    outer loop
      vertex 57.1 9.5 3
      vertex 57.1 7.9 6.48
      vertex 57.1 7.9 3
    endloop
  endfacet
  facet normal -0 0 1
    outer loop
      vertex 6 9.5 6.48
      vertex 57.1 7.9 6.48
      vertex 57.1 9.5 6.48
    endloop
  endfacet
  facet normal 0 0 1
    outer loop
      vertex 57.1 7.9 6.48
      vertex 6 9.5 6.48
      vertex 6 7.9 6.48
    endloop
  endfacet
  facet normal -1 0 0
    outer loop
      vertex 6 7.9 3
      vertex 6 9.5 6.48
      vertex 6 9.5 3
    endloop
  endfacet
  facet normal -1 -0 0
    outer loop
      vertex 6 9.5 6.48
      vertex 6 7.9 3
      vertex 6 7.9 6.48
    endloop
  endfacet
  facet normal 0 -1 0
    outer loop
      vertex 6 7.9 3
      vertex 57.1 7.9 6.48
      vertex 6 7.9 6.48
    endloop
  endfacet
  facet normal 0 -1 -0
    outer loop
      vertex 57.1 7.9 6.48
      vertex 6 7.9 3
      vertex 57.1 7.9 3
    endloop
  endfacet
  facet normal 0 1 -0
    outer loop
      vertex 57.1 9.5 3
      vertex 6 9.5 6.48
      vertex 57.1 9.5 6.48
    endloop
  endfacet
  facet normal 0 1 0
    outer loop
      vertex 6 9.5 6.48
      vertex 57.1 9.5 3
      vertex 6 9.5 3
    endloop
  endfacet
  facet normal 1 0 0
    outer loop
      vertex 63.1 9.7 5.4
      vertex 63.1 8.1 5.4
      vertex 63.1 9.7 3
    endloop
  endfacet
  facet normal 1 -0 0
    outer loop
      vertex 63.1 9.7 3
      vertex 63.1 13 0
      vertex 63.1 13 3
    endloop
  endfacet
  facet normal 1 0 0
    outer loop
      vertex 63.1 8.1 3
      vertex 63.1 9.7 3
      vertex 63.1 8.1 5.4
    endloop
  endfacet
  facet normal 1 -0 0
    outer loop
      vertex 63.1 8.1 3
      vertex 63.1 13 0
      vertex 63.1 9.7 3
    endloop
  endfacet
  facet normal 1 0 0
    outer loop
      vertex 63.1 0 0
      vertex 63.1 8.1 3
      vertex 63.1 0 3
    endloop
  endfacet
  facet normal 1 0 0
    outer loop
      vertex 63.1 8.1 3
      vertex 63.1 0 0
      vertex 63.1 13 0
    endloop
  endfacet
  facet normal -1 0 0
    outer loop
      vertex -1.90735e-07 13 0
      vertex -1.90735e-07 9.7 3
      vertex -1.90735e-07 13 3
    endloop
  endfacet
  facet normal -1 0 0
    outer loop
      vertex -1.90735e-07 9.7 3
      vertex -1.90735e-07 8.1 3
      vertex -1.90735e-07 9.7 5.4
    endloop
  endfacet
  facet normal -1 0 0
    outer loop
      vertex -1.90735e-07 13 0
      vertex -1.90735e-07 8.1 3
      vertex -1.90735e-07 9.7 3
    endloop
  endfacet
  facet normal -1 0 0
    outer loop
      vertex -1.90735e-07 0 0
      vertex -1.90735e-07 8.1 3
      vertex -1.90735e-07 13 0
    endloop
  endfacet
  facet normal -1 -0 0
    outer loop
      vertex -1.90735e-07 8.1 3
      vertex -1.90735e-07 0 0
      vertex -1.90735e-07 0 3
    endloop
  endfacet
  facet normal -1 -0 0
    outer loop
      vertex -1.90735e-07 9.7 5.4
      vertex -1.90735e-07 8.1 3
      vertex -1.90735e-07 8.1 5.4
    endloop
  endfacet
  facet normal 0 -1 0
    outer loop
      vertex -1.90735e-07 0 0
      vertex 63.1 0 3
      vertex -1.90735e-07 0 3
    endloop
  endfacet
  facet normal 0 -1 -0
    outer loop
      vertex 63.1 0 3
      vertex -1.90735e-07 0 0
      vertex 63.1 0 0
    endloop
  endfacet
endsolid OpenSCAD_Model
