solid OpenSCAD_Model
  facet normal 0 -1 0
    outer loop
      vertex -1.90735e-07 0 20
      vertex 6.6 0 7.7
      vertex 6.6 0 20
    endloop
  endfacet
  facet normal 0 -1 -0
    outer loop
      vertex 6.6 0 7.7
      vertex -1.90735e-07 0 0
      vertex 56.5 0 7.7
    endloop
  endfacet
  facet normal 0 -1 0
    outer loop
      vertex -1.90735e-07 0 0
      vertex 6.6 0 7.7
      vertex -1.90735e-07 0 20
    endloop
  endfacet
  facet normal 0 -1 0
    outer loop
      vertex 56.5 0 7.7
      vertex 63.1 0 20
      vertex 56.5 0 20
    endloop
  endfacet
  facet normal 0 -1 0
    outer loop
      vertex 56.5 0 7.7
      vertex 63.1 0 0
      vertex 63.1 0 20
    endloop
  endfacet
  facet normal 0 -1 0
    outer loop
      vertex 63.1 0 0
      vertex 56.5 0 7.7
      vertex -1.90735e-07 0 0
    endloop
  endfacet
  facet normal 0 0 -1
    outer loop
      vertex -1.90735e-07 0 0
      vertex 63.1 13 0
      vertex 63.1 0 0
    endloop
  endfacet
  facet normal -0 0 -1
    outer loop
      vertex 63.1 13 0
      vertex -1.90735e-07 0 0
      vertex -1.90735e-07 13 0
    endloop
  endfacet
  facet normal 0 0 1
    outer loop
      vertex 1 3 20
      vertex -1.90735e-07 3 20
      vertex 1 1 20
    endloop
  endfacet
  facet normal -0 0 1
    outer loop
      vertex 1 1 20
      vertex 6.6 0 20
      vertex 6.6 1 20
    endloop
  endfacet
  facet normal 0 0 1
    outer loop
      vertex 1 1 20
      vertex -1.90735e-07 0 20
      vertex 6.6 0 20
    endloop
  endfacet
  facet normal 0 0 1
    outer loop
      vertex -1.90735e-07 0 20
      vertex 1 1 20
      vertex -1.90735e-07 3 20
    endloop
  endfacet
  facet normal 0 0 1
    outer loop
      vertex 62.1 1 20
      vertex 63.1 3 20
      vertex 62.1 3 20
    endloop
  endfacet
  facet normal 0 0 1
    outer loop
      vertex 63.1 3 20
      vertex 62.1 1 20
      vertex 63.1 0 20
    endloop
  endfacet
  facet normal 0 0 1
    outer loop
      vertex 56.5 0 20
      vertex 62.1 1 20
      vertex 56.5 1 20
    endloop
  endfacet
  facet normal 0 0 1
    outer loop
      vertex 62.1 1 20
      vertex 56.5 0 20
      vertex 63.1 0 20
    endloop
  endfacet
  facet normal 0 0 1
    outer loop
      vertex 63.1 13 3
      vertex 59.4 7.4 3
      vertex 63.1 3 3
    endloop
  endfacet
  facet normal 0 0 1
    outer loop
      vertex 63.1 13 3
      vertex 3.7 7.4 3
      vertex 59.4 7.4 3
    endloop
  endfacet
  facet normal -0 0 1
    outer loop
      vertex -1.90735e-07 13 3
      vertex 3.7 7.4 3
      vertex 63.1 13 3
    endloop
  endfacet
  facet normal 0 0 1
    outer loop
      vertex -1.90735e-07 3 3
      vertex 3.7 7.4 3
      vertex -1.90735e-07 13 3
    endloop
  endfacet
  facet normal 0 0 1
    outer loop
      vertex 3.7 7.4 3
      vertex -1.90735e-07 3 3
      vertex 3.7 3 3
    endloop
  endfacet
  facet normal 0 0 1
    outer loop
      vertex 63.1 3 3
      vertex 59.4 7.4 3
      vertex 59.4 3 3
    endloop
  endfacet
  facet normal 0 1 0
    outer loop
      vertex 3.7 3 4
      vertex 3.7 3 3
      vertex 1 3 4
    endloop
  endfacet
  facet normal 0 1 -0
    outer loop
      vertex 1 3 4
      vertex -1.90735e-07 3 20
      vertex 1 3 20
    endloop
  endfacet
  facet normal 0 1 0
    outer loop
      vertex 1 3 4
      vertex -1.90735e-07 3 3
      vertex -1.90735e-07 3 20
    endloop
  endfacet
  facet normal 0 1 0
    outer loop
      vertex -1.90735e-07 3 3
      vertex 1 3 4
      vertex 3.7 3 3
    endloop
  endfacet
  facet normal 0 1 0
    outer loop
      vertex 63.1 3 20
      vertex 62.1 3 4
      vertex 62.1 3 20
    endloop
  endfacet
  facet normal 0 1 -0
    outer loop
      vertex 63.1 3 3
      vertex 62.1 3 4
      vertex 63.1 3 20
    endloop
  endfacet
  facet normal 0 1 0
    outer loop
      vertex 59.4 3 3
      vertex 62.1 3 4
      vertex 63.1 3 3
    endloop
  endfacet
  facet normal 0 1 0
    outer loop
      vertex 62.1 3 4
      vertex 59.4 3 3
      vertex 59.4 3 4
    endloop
  endfacet
  facet normal 0 1 -0
    outer loop
      vertex 52.1 3 5.5
      vertex 11 3 7.7
      vertex 52.1 3 7.7
    endloop
  endfacet
  facet normal 0 1 0
    outer loop
      vertex 11 3 7.7
      vertex 52.1 3 5.5
      vertex 11 3 5.5
    endloop
  endfacet
  facet normal -1 0 0
    outer loop
      vertex 3.7 3 3
      vertex 3.7 7.4 4
      vertex 3.7 7.4 3
    endloop
  endfacet
  facet normal -1 -0 0
    outer loop
      vertex 3.7 7.4 4
      vertex 3.7 3 3
      vertex 3.7 3 4
    endloop
  endfacet
  facet normal 0 1 -0
    outer loop
      vertex 59.4 7.4 3
      vertex 52.1 7.4 4
      vertex 59.4 7.4 4
    endloop
  endfacet
  facet normal 0 1 0
    outer loop
      vertex 52.1 7.4 4
      vertex 59.4 7.4 3
      vertex 11 7.4 4
    endloop
  endfacet
  facet normal 0 1 0
    outer loop
      vertex 3.7 7.4 3
      vertex 11 7.4 4
      vertex 59.4 7.4 3
    endloop
  endfacet
  facet normal 0 1 0
    outer loop
      vertex 11 7.4 4
      vertex 3.7 7.4 3
      vertex 3.7 7.4 4
    endloop
  endfacet
  facet normal 0 1 -0
    outer loop
      vertex 52.1 7.4 4
      vertex 50.1 7.4 5.5
      vertex 52.1 7.4 5.5
    endloop
  endfacet
  facet normal 0 1 0
    outer loop
      vertex 50.1 7.4 5.5
      vertex 52.1 7.4 4
      vertex 47.1 7.4 5.5
    endloop
  endfacet
  facet normal 0 1 0
    outer loop
      vertex 47.1 7.4 5.5
      vertex 52.1 7.4 4
      vertex 16 7.4 5.5
    endloop
  endfacet
  facet normal 0 1 0
    outer loop
      vertex 11 7.4 4
      vertex 16 7.4 5.5
      vertex 52.1 7.4 4
    endloop
  endfacet
  facet normal 0 1 0
    outer loop
      vertex 16 7.4 5.5
      vertex 11 7.4 4
      vertex 13 7.4 5.5
    endloop
  endfacet
  facet normal 0 1 0
    outer loop
      vertex 13 7.4 5.5
      vertex 11 7.4 4
      vertex 11 7.4 5.5
    endloop
  endfacet
  facet normal 0 1 -0
    outer loop
      vertex 50.1 7.4 5.5
      vertex 47.1 7.4 16.22
      vertex 50.1 7.4 16.22
    endloop
  endfacet
  facet normal 0 1 0
    outer loop
      vertex 47.1 7.4 16.22
      vertex 50.1 7.4 5.5
      vertex 47.1 7.4 5.5
    endloop
  endfacet
  facet normal 0 1 -0
    outer loop
      vertex 16 7.4 5.5
      vertex 13 7.4 16.22
      vertex 16 7.4 16.22
    endloop
  endfacet
  facet normal 0 1 0
    outer loop
      vertex 13 7.4 16.22
      vertex 16 7.4 5.5
      vertex 13 7.4 5.5
    endloop
  endfacet
  facet normal 1 -0 0
    outer loop
      vertex 59.4 3 4
      vertex 59.4 7.4 3
      vertex 59.4 7.4 4
    endloop
  endfacet
  facet normal 1 0 0
    outer loop
      vertex 59.4 7.4 3
      vertex 59.4 3 4
      vertex 59.4 3 3
    endloop
  endfacet
  facet normal 1 -0 0
    outer loop
      vertex 16 5.4 16.22
      vertex 16 7.4 5.5
      vertex 16 7.4 16.22
    endloop
  endfacet
  facet normal 1 0 0
    outer loop
      vertex 16 7.4 5.5
      vertex 16 5.4 16.22
      vertex 16 5.4 5.5
    endloop
  endfacet
  facet normal -0 0 1
    outer loop
      vertex 13 7.4 16.22
      vertex 16 5.4 16.22
      vertex 16 7.4 16.22
    endloop
  endfacet
  facet normal 0 0 1
    outer loop
      vertex 16 5.4 16.22
      vertex 13 7.4 16.22
      vertex 13 5.4 16.22
    endloop
  endfacet
  facet normal -1 0 0
    outer loop
      vertex 13 5.4 5.5
      vertex 13 7.4 16.22
      vertex 13 7.4 5.5
    endloop
  endfacet
  facet normal -1 -0 0
    outer loop
      vertex 13 7.4 16.22
      vertex 13 5.4 5.5
      vertex 13 5.4 16.22
    endloop
  endfacet
  facet normal 0 -1 0
    outer loop
      vertex 13 5.4 5.5
      vertex 16 5.4 16.22
      vertex 13 5.4 16.22
    endloop
  endfacet
  facet normal 0 -1 -0
    outer loop
      vertex 16 5.4 16.22
      vertex 13 5.4 5.5
      vertex 16 5.4 5.5
    endloop
  endfacet
  facet normal 1 -0 0
    outer loop
      vertex 50.1 5.4 16.22
      vertex 50.1 7.4 5.5
      vertex 50.1 7.4 16.22
    endloop
  endfacet
  facet normal 1 0 0
    outer loop
      vertex 50.1 7.4 5.5
      vertex 50.1 5.4 16.22
      vertex 50.1 5.4 5.5
    endloop
  endfacet
  facet normal -0 0 1
    outer loop
      vertex 47.1 7.4 16.22
      vertex 50.1 5.4 16.22
      vertex 50.1 7.4 16.22
    endloop
  endfacet
  facet normal 0 0 1
    outer loop
      vertex 50.1 5.4 16.22
      vertex 47.1 7.4 16.22
      vertex 47.1 5.4 16.22
    endloop
  endfacet
  facet normal -1 0 0
    outer loop
      vertex 47.1 5.4 5.5
      vertex 47.1 7.4 16.22
      vertex 47.1 7.4 5.5
    endloop
  endfacet
  facet normal -1 -0 0
    outer loop
      vertex 47.1 7.4 16.22
      vertex 47.1 5.4 5.5
      vertex 47.1 5.4 16.22
    endloop
  endfacet
  facet normal 0 -1 0
    outer loop
      vertex 47.1 5.4 5.5
      vertex 50.1 5.4 16.22
      vertex 47.1 5.4 16.22
    endloop
  endfacet
  facet normal 0 -1 -0
    outer loop
      vertex 50.1 5.4 16.22
      vertex 47.1 5.4 5.5
      vertex 50.1 5.4 5.5
    endloop
  endfacet
  facet normal 0 0 1
    outer loop
      vertex 13 7.4 5.5
      vertex 11 7.4 5.5
      vertex 13 5.4 5.5
    endloop
  endfacet
  facet normal 0 0 1
    outer loop
      vertex 47.1 7.4 5.5
      vertex 16 7.4 5.5
      vertex 47.1 5.4 5.5
    endloop
  endfacet
  facet normal 0 0 1
    outer loop
      vertex 50.1 5.4 5.5
      vertex 52.1 7.4 5.5
      vertex 50.1 7.4 5.5
    endloop
  endfacet
  facet normal 0 0 1
    outer loop
      vertex 52.1 7.4 5.5
      vertex 50.1 5.4 5.5
      vertex 52.1 3 5.5
    endloop
  endfacet
  facet normal -0 0 1
    outer loop
      vertex 47.1 5.4 5.5
      vertex 52.1 3 5.5
      vertex 50.1 5.4 5.5
    endloop
  endfacet
  facet normal 0 0 1
    outer loop
      vertex 16 5.4 5.5
      vertex 47.1 5.4 5.5
      vertex 16 7.4 5.5
    endloop
  endfacet
  facet normal 0 0 1
    outer loop
      vertex 47.1 5.4 5.5
      vertex 16 5.4 5.5
      vertex 52.1 3 5.5
    endloop
  endfacet
  facet normal 0 0 1
    outer loop
      vertex 11 3 5.5
      vertex 16 5.4 5.5
      vertex 13 5.4 5.5
    endloop
  endfacet
  facet normal 0 0 1
    outer loop
      vertex 16 5.4 5.5
      vertex 11 3 5.5
      vertex 52.1 3 5.5
    endloop
  endfacet
  facet normal 0 0 1
    outer loop
      vertex 11 3 5.5
      vertex 13 5.4 5.5
      vertex 11 7.4 5.5
    endloop
  endfacet
  facet normal -1 0 0
    outer loop
      vertex 11 7.4 4
      vertex 11 3 5.5
      vertex 11 7.4 5.5
    endloop
  endfacet
  facet normal -1 0 0
    outer loop
      vertex 11 1 4
      vertex 11 3 5.5
      vertex 11 7.4 4
    endloop
  endfacet
  facet normal -1 0 0
    outer loop
      vertex 11 1 7.7
      vertex 11 3 5.5
      vertex 11 1 4
    endloop
  endfacet
  facet normal -1 0 0
    outer loop
      vertex 11 3 5.5
      vertex 11 1 7.7
      vertex 11 3 7.7
    endloop
  endfacet
  facet normal 0 0 1
    outer loop
      vertex 3.7 3 4
      vertex 11 7.4 4
      vertex 3.7 7.4 4
    endloop
  endfacet
  facet normal 0 0 1
    outer loop
      vertex 11 7.4 4
      vertex 3.7 3 4
      vertex 11 1 4
    endloop
  endfacet
  facet normal 0 0 1
    outer loop
      vertex 1 1 4
      vertex 3.7 3 4
      vertex 1 3 4
    endloop
  endfacet
  facet normal 0 0 1
    outer loop
      vertex 3.7 3 4
      vertex 1 1 4
      vertex 11 1 4
    endloop
  endfacet
  facet normal 1 -0 0
    outer loop
      vertex 1 1 20
      vertex 1 3 4
      vertex 1 3 20
    endloop
  endfacet
  facet normal 1 0 0
    outer loop
      vertex 1 3 4
      vertex 1 1 20
      vertex 1 1 4
    endloop
  endfacet
  facet normal 0 1 0
    outer loop
      vertex 11 1 7.7
      vertex 11 1 4
      vertex 6.6 1 7.7
    endloop
  endfacet
  facet normal 0 1 -0
    outer loop
      vertex 6.6 1 7.7
      vertex 1 1 20
      vertex 6.6 1 20
    endloop
  endfacet
  facet normal 0 1 0
    outer loop
      vertex 6.6 1 7.7
      vertex 1 1 4
      vertex 1 1 20
    endloop
  endfacet
  facet normal 0 1 0
    outer loop
      vertex 1 1 4
      vertex 6.6 1 7.7
      vertex 11 1 4
    endloop
  endfacet
  facet normal -1 0 0
    outer loop
      vertex 62.1 1 4
      vertex 62.1 3 20
      vertex 62.1 3 4
    endloop
  endfacet
  facet normal -1 -0 0
    outer loop
      vertex 62.1 3 20
      vertex 62.1 1 4
      vertex 62.1 1 20
    endloop
  endfacet
  facet normal 0 0 1
    outer loop
      vertex 59.4 7.4 4
      vertex 52.1 7.4 4
      vertex 59.4 3 4
    endloop
  endfacet
  facet normal -0 0 1
    outer loop
      vertex 59.4 3 4
      vertex 62.1 1 4
      vertex 62.1 3 4
    endloop
  endfacet
  facet normal 0 0 1
    outer loop
      vertex 52.1 1 4
      vertex 59.4 3 4
      vertex 52.1 7.4 4
    endloop
  endfacet
  facet normal 0 0 1
    outer loop
      vertex 59.4 3 4
      vertex 52.1 1 4
      vertex 62.1 1 4
    endloop
  endfacet
  facet normal 1 0 0
    outer loop
      vertex 52.1 3 7.7
      vertex 52.1 1 7.7
      vertex 52.1 3 5.5
    endloop
  endfacet
  facet normal 1 -0 0
    outer loop
      vertex 52.1 3 5.5
      vertex 52.1 7.4 4
      vertex 52.1 7.4 5.5
    endloop
  endfacet
  facet normal 1 0 0
    outer loop
      vertex 52.1 3 5.5
      vertex 52.1 1 4
      vertex 52.1 7.4 4
    endloop
  endfacet
  facet normal 1 0 0
    outer loop
      vertex 52.1 1 4
      vertex 52.1 3 5.5
      vertex 52.1 1 7.7
    endloop
  endfacet
  facet normal 0 1 0
    outer loop
      vertex 62.1 1 20
      vertex 56.5 1 7.7
      vertex 56.5 1 20
    endloop
  endfacet
  facet normal 0 1 -0
    outer loop
      vertex 62.1 1 4
      vertex 56.5 1 7.7
      vertex 62.1 1 20
    endloop
  endfacet
  facet normal 0 1 0
    outer loop
      vertex 52.1 1 4
      vertex 56.5 1 7.7
      vertex 62.1 1 4
    endloop
  endfacet
  facet normal 0 1 0
    outer loop
      vertex 56.5 1 7.7
      vertex 52.1 1 4
      vertex 52.1 1 7.7
    endloop
  endfacet
  facet normal -1 0 0
    outer loop
      vertex 56.5 0 7.7
      vertex 56.5 1 20
      vertex 56.5 1 7.7
    endloop
  endfacet
  facet normal -1 -0 0
    outer loop
      vertex 56.5 1 20
      vertex 56.5 0 7.7
      vertex 56.5 0 20
    endloop
  endfacet
  facet normal 0 0 1
    outer loop
      vertex 52.1 3 7.7
      vertex 11 3 7.7
      vertex 52.1 1 7.7
    endloop
  endfacet
  facet normal -0 0 1
    outer loop
      vertex 52.1 1 7.7
      vertex 56.5 0 7.7
      vertex 56.5 1 7.7
    endloop
  endfacet
  facet normal 0 0 1
    outer loop
      vertex 11 1 7.7
      vertex 52.1 1 7.7
      vertex 11 3 7.7
    endloop
  endfacet
  facet normal 0 0 1
    outer loop
      vertex 52.1 1 7.7
      vertex 11 1 7.7
      vertex 56.5 0 7.7
    endloop
  endfacet
  facet normal 0 0 1
    outer loop
      vertex 6.6 0 7.7
      vertex 11 1 7.7
      vertex 6.6 1 7.7
    endloop
  endfacet
  facet normal 0 0 1
    outer loop
      vertex 11 1 7.7
      vertex 6.6 0 7.7
      vertex 56.5 0 7.7
    endloop
  endfacet
  facet normal 1 -0 0
    outer loop
      vertex 6.6 0 20
      vertex 6.6 1 7.7
      vertex 6.6 1 20
    endloop
  endfacet
  facet normal 1 0 0
    outer loop
      vertex 6.6 1 7.7
      vertex 6.6 0 20
      vertex 6.6 0 7.7
    endloop
  endfacet
  facet normal 1 0 0
    outer loop
      vertex 63.1 3 20
      vertex 63.1 0 20
      vertex 63.1 3 3
    endloop
  endfacet
  facet normal 1 -0 0
    outer loop
      vertex 63.1 3 3
      vertex 63.1 13 0
      vertex 63.1 13 3
    endloop
  endfacet
  facet normal 1 0 0
    outer loop
      vertex 63.1 3 3
      vertex 63.1 0 0
      vertex 63.1 13 0
    endloop
  endfacet
  facet normal 1 0 0
    outer loop
      vertex 63.1 0 0
      vertex 63.1 3 3
      vertex 63.1 0 20
    endloop
  endfacet
  facet normal -1 0 0
    outer loop
      vertex -1.90735e-07 13 0
      vertex -1.90735e-07 3 3
      vertex -1.90735e-07 13 3
    endloop
  endfacet
  facet normal -1 0 0
    outer loop
      vertex -1.90735e-07 0 0
      vertex -1.90735e-07 3 3
      vertex -1.90735e-07 13 0
    endloop
  endfacet
  facet normal -1 0 0
    outer loop
      vertex -1.90735e-07 0 20
      vertex -1.90735e-07 3 3
      vertex -1.90735e-07 0 0
    endloop
  endfacet
  facet normal -1 0 0
    outer loop
      vertex -1.90735e-07 3 3
      vertex -1.90735e-07 0 20
      vertex -1.90735e-07 3 20
    endloop
  endfacet
  facet normal 0 1 -0
    outer loop
      vertex 63.1 13 0
      vertex -1.90735e-07 13 3
      vertex 63.1 13 3
    endloop
  endfacet
  facet normal 0 1 0
    outer loop
      vertex -1.90735e-07 13 3
      vertex 63.1 13 0
      vertex -1.90735e-07 13 0
    endloop
  endfacet
endsolid OpenSCAD_Model
